<svg width="1920" height="366" viewBox="0 0 1920 366" fill="none" xmlns="http://www.w3.org/2000/svg">
<path d="M619.354 245.257C453.161 297.004 266.554 222.989 98.77 95.4084C-69.014 -32.172 1.09473 27.3979 130.202 -204.244C130.202 -204.244 185.347 -95.0767 378.904 -189.391C572.462 -283.705 182.236 -475.593 432.395 -454.882L869.691 -389.53C1178.8 -386.183 1352.91 -401.916 1665.43 -472.705C2025.29 -525.134 2167.4 -532.215 2109.89 -428.518L2042.62 -283.705C2041.59 -149.752 2064.33 -85.3959 2148.49 9.26303C2179.15 147.706 2078.99 335.821 1917.45 366C1912.82 79.9213 1587.88 -32.2515 1325.55 9.27609C1063.21 50.8036 785.546 193.51 619.354 245.257Z" fill="#13656A"/>
</svg>
