<svg width="396" height="90" viewBox="0 0 396 90" fill="none" xmlns="http://www.w3.org/2000/svg">
<path d="M118.154 64L118.106 43.84L108.218 60.448H104.714L94.8738 44.272V64H87.5778V30.4H94.0098L106.586 51.28L118.97 30.4H125.354L125.45 64H118.154ZM145.182 64.384C142.462 64.384 140.014 63.824 137.838 62.704C135.694 61.552 134.014 59.968 132.798 57.952C131.582 55.936 130.974 53.648 130.974 51.088C130.974 48.528 131.582 46.24 132.798 44.224C134.014 42.208 135.694 40.64 137.838 39.52C140.014 38.368 142.462 37.792 145.182 37.792C147.902 37.792 150.334 38.368 152.478 39.52C154.622 40.64 156.302 42.208 157.518 44.224C158.734 46.24 159.342 48.528 159.342 51.088C159.342 53.648 158.734 55.936 157.518 57.952C156.302 59.968 154.622 61.552 152.478 62.704C150.334 63.824 147.902 64.384 145.182 64.384ZM145.182 58.24C147.102 58.24 148.67 57.6 149.886 56.32C151.134 55.008 151.758 53.264 151.758 51.088C151.758 48.912 151.134 47.184 149.886 45.904C148.67 44.592 147.102 43.936 145.182 43.936C143.262 43.936 141.678 44.592 140.43 45.904C139.182 47.184 138.558 48.912 138.558 51.088C138.558 53.264 139.182 55.008 140.43 56.32C141.678 57.6 143.262 58.24 145.182 58.24ZM176.635 64.384C173.915 64.384 171.467 63.824 169.291 62.704C167.147 61.552 165.467 59.968 164.251 57.952C163.035 55.936 162.427 53.648 162.427 51.088C162.427 48.528 163.035 46.24 164.251 44.224C165.467 42.208 167.147 40.64 169.291 39.52C171.467 38.368 173.915 37.792 176.635 37.792C179.355 37.792 181.787 38.368 183.931 39.52C186.075 40.64 187.755 42.208 188.971 44.224C190.187 46.24 190.795 48.528 190.795 51.088C190.795 53.648 190.187 55.936 188.971 57.952C187.755 59.968 186.075 61.552 183.931 62.704C181.787 63.824 179.355 64.384 176.635 64.384ZM176.635 58.24C178.555 58.24 180.123 57.6 181.339 56.32C182.587 55.008 183.211 53.264 183.211 51.088C183.211 48.912 182.587 47.184 181.339 45.904C180.123 44.592 178.555 43.936 176.635 43.936C174.715 43.936 173.131 44.592 171.883 45.904C170.635 47.184 170.011 48.912 170.011 51.088C170.011 53.264 170.635 55.008 171.883 56.32C173.131 57.6 174.715 58.24 176.635 58.24ZM211.496 37.792C214.696 37.792 217.272 38.752 219.224 40.672C221.208 42.592 222.2 45.44 222.2 49.216V64H214.712V50.368C214.712 48.32 214.264 46.8 213.368 45.808C212.472 44.784 211.176 44.272 209.48 44.272C207.592 44.272 206.088 44.864 204.968 46.048C203.848 47.2 203.288 48.928 203.288 51.232V64H195.8V38.176H202.952V41.2C203.944 40.112 205.176 39.28 206.648 38.704C208.12 38.096 209.736 37.792 211.496 37.792ZM237.675 64.384C235.531 64.384 233.435 64.128 231.387 63.616C229.339 63.072 227.707 62.4 226.491 61.6L228.987 56.224C230.139 56.96 231.531 57.568 233.163 58.048C234.795 58.496 236.395 58.72 237.963 58.72C241.131 58.72 242.715 57.936 242.715 56.368C242.715 55.632 242.283 55.104 241.419 54.784C240.555 54.464 239.227 54.192 237.435 53.968C235.323 53.648 233.579 53.28 232.203 52.864C230.827 52.448 229.627 51.712 228.603 50.656C227.611 49.6 227.115 48.096 227.115 46.144C227.115 44.512 227.579 43.072 228.507 41.824C229.467 40.544 230.843 39.552 232.635 38.848C234.459 38.144 236.603 37.792 239.067 37.792C240.891 37.792 242.699 38 244.491 38.416C246.315 38.8 247.819 39.344 249.003 40.048L246.507 45.376C244.235 44.096 241.755 43.456 239.067 43.456C237.467 43.456 236.267 43.68 235.467 44.128C234.667 44.576 234.267 45.152 234.267 45.856C234.267 46.656 234.699 47.216 235.563 47.536C236.427 47.856 237.803 48.16 239.691 48.448C241.803 48.8 243.531 49.184 244.875 49.6C246.219 49.984 247.387 50.704 248.379 51.76C249.371 52.816 249.867 54.288 249.867 56.176C249.867 57.776 249.387 59.2 248.427 60.448C247.467 61.696 246.059 62.672 244.203 63.376C242.379 64.048 240.203 64.384 237.675 64.384ZM270.183 37.792C273.383 37.792 275.959 38.752 277.911 40.672C279.895 42.592 280.887 45.44 280.887 49.216V64H273.399V50.368C273.399 48.32 272.951 46.8 272.055 45.808C271.159 44.784 269.863 44.272 268.167 44.272C266.279 44.272 264.775 44.864 263.655 46.048C262.535 47.2 261.975 48.928 261.975 51.232V64H254.487V28.384H261.975V40.864C262.967 39.872 264.167 39.12 265.575 38.608C266.983 38.064 268.519 37.792 270.183 37.792ZM287.675 38.176H295.163V64H287.675V38.176ZM291.419 34.576C290.043 34.576 288.923 34.176 288.059 33.376C287.195 32.576 286.763 31.584 286.763 30.4C286.763 29.216 287.195 28.224 288.059 27.424C288.923 26.624 290.043 26.224 291.419 26.224C292.795 26.224 293.915 26.608 294.779 27.376C295.643 28.144 296.075 29.104 296.075 30.256C296.075 31.504 295.643 32.544 294.779 33.376C293.915 34.176 292.795 34.576 291.419 34.576ZM317.808 37.792C321.008 37.792 323.584 38.752 325.536 40.672C327.52 42.592 328.512 45.44 328.512 49.216V64H321.024V50.368C321.024 48.32 320.576 46.8 319.68 45.808C318.784 44.784 317.488 44.272 315.792 44.272C313.904 44.272 312.4 44.864 311.28 46.048C310.16 47.2 309.6 48.928 309.6 51.232V64H302.112V38.176H309.264V41.2C310.256 40.112 311.488 39.28 312.96 38.704C314.432 38.096 316.048 37.792 317.808 37.792ZM360.877 51.184C360.877 51.28 360.829 51.952 360.733 53.2H341.197C341.549 54.8 342.381 56.064 343.693 56.992C345.005 57.92 346.637 58.384 348.589 58.384C349.933 58.384 351.117 58.192 352.141 57.808C353.197 57.392 354.173 56.752 355.069 55.888L359.053 60.208C356.621 62.992 353.069 64.384 348.397 64.384C345.485 64.384 342.909 63.824 340.669 62.704C338.429 61.552 336.701 59.968 335.485 57.952C334.269 55.936 333.661 53.648 333.661 51.088C333.661 48.56 334.253 46.288 335.437 44.272C336.653 42.224 338.301 40.64 340.381 39.52C342.493 38.368 344.845 37.792 347.437 37.792C349.965 37.792 352.253 38.336 354.301 39.424C356.349 40.512 357.949 42.08 359.101 44.128C360.285 46.144 360.877 48.496 360.877 51.184ZM347.485 43.456C345.789 43.456 344.365 43.936 343.213 44.896C342.061 45.856 341.357 47.168 341.101 48.832H353.821C353.565 47.2 352.861 45.904 351.709 44.944C350.557 43.952 349.149 43.456 347.485 43.456Z" fill="url(#paint0_linear)" fill-opacity="0.9"/>
<path fill-rule="evenodd" clip-rule="evenodd" d="M84.3329 11.9671C70.4099 16.7558 60.4756 29.2955 60.4756 44.011C60.4756 59.3074 71.2097 72.2528 86 76.5854C76.8912 84.8664 64.2275 90 50.2255 90C22.4867 90 0 69.8528 0 45C0 20.1472 22.4867 0 50.2255 0C63.3924 0 75.376 4.53955 84.3329 11.9671Z" fill="#13656A"/>
<path d="M56.4091 59.7602V61.8242H46.0891V35.6162L34.3771 58.8962H31.2091L19.5451 35.6162V61.8242H9.2251V59.7602H13.8811V28.2722H22.7131L32.8411 49.3442L42.9691 28.2722H51.7531V59.7602H56.4091Z" fill="white"/>
<mask id="mask0" mask-type="alpha" maskUnits="userSpaceOnUse" x="9" y="28" width="48" height="34">
<path d="M56.4091 59.7602V61.8242H46.0891V35.6162L34.3771 58.8962H31.2091L19.5451 35.6162V61.8242H9.2251V59.7602H13.8811V28.2722H22.7131L32.8411 49.3442L42.9691 28.2722H51.7531V59.7602H56.4091Z" fill="white"/>
</mask>
<g mask="url(#mask0)">
<path d="M53 57.5456C53 46.0456 42.4493 16.0478 21.5 23.0455C21.5 23.0455 23 35.0455 19 36.0455C15 37.0455 15 53.5455 15 53.5455C15.8145 68.1766 21.1717 91.8406 27.2367 63.1659C33.3017 34.4913 42.0568 60.5406 44.5 69.5456C48.4836 68.8213 52.7265 69.4872 53 57.5456Z" fill="#CEFF0B"/>
</g>
<defs>
<linearGradient id="paint0_linear" x1="96" y1="22" x2="368" y2="64.0001" gradientUnits="userSpaceOnUse">
<stop/>
<stop offset="1" stop-color="#CEFF0B"/>
</linearGradient>
</defs>
</svg>
