<svg width="1920" height="494" viewBox="0 0 1920 494" fill="none" xmlns="http://www.w3.org/2000/svg">
<path d="M620.5 164.5C454 94 267.047 194.838 98.9528 368.654C-69.1418 542.469 1.09669 461.311 130.443 776.899C130.443 776.899 185.69 628.17 379.606 756.664C573.521 885.157 182.573 1146.59 433.195 1118.37L871.301 1029.33C1180.98 1024.77 1355.41 1046.21 1668.51 1142.65C2029.04 1214.08 2171.41 1223.73 2113.8 1082.45L2046.4 885.157C2045.37 702.659 2068.15 614.981 2152.47 486.018C2183.19 297.404 2082.84 41.1162 1921 0C1916.36 389.753 1590.82 542.577 1328 486C1065.18 429.423 787 235 620.5 164.5Z" fill="#13656A"/>
</svg>
