<svg width="726" height="698" viewBox="0 0 726 698" fill="none" xmlns="http://www.w3.org/2000/svg">
<ellipse cx="363" cy="349" rx="363" ry="349" fill="#13656A"/>
<path d="M494.314 314.228L487.428 345.573L481.837 371.001L477.382 391.282L471.795 416.71L453.539 499.785L227.318 394.003L210.69 386.226L189.642 376.382L173.007 368.605L153 359.248L164.342 342.549L173.775 328.663L185.707 311.095L195.136 297.218L301.243 141L413.647 241.854L433.664 259.812L449.625 274.133L469.644 292.092L494.314 314.228Z" fill="white"/>
<path d="M409.576 353.706L421.262 374.188L432.947 394.67H409.576H386.205L397.89 374.188L409.576 353.706Z" fill="#CEFF0B"/>
<path d="M343.173 313.478H294.166V363.071H343.173V313.478Z" fill="#CEFF0B"/>
<path d="M378.302 281.879C395.667 281.879 409.745 267.633 409.745 250.061C409.745 232.488 395.667 218.242 378.302 218.242C360.937 218.242 346.859 232.488 346.859 250.061C346.859 267.633 360.937 281.879 378.302 281.879Z" fill="#CEFF0B"/>
<path d="M406.6 303.189C406.6 302.147 406.906 301.129 407.477 300.263C408.049 299.397 408.862 298.722 409.813 298.323C410.764 297.925 411.81 297.82 412.82 298.024C413.83 298.227 414.757 298.728 415.485 299.465C416.212 300.201 416.708 301.14 416.909 302.161C417.11 303.183 417.007 304.242 416.613 305.204C416.219 306.167 415.552 306.989 414.696 307.568C413.84 308.147 412.834 308.455 411.805 308.455C410.425 308.454 409.102 307.899 408.126 306.911C407.151 305.924 406.602 304.585 406.6 303.189ZM407.468 303.189C407.468 304.057 407.722 304.905 408.199 305.627C408.675 306.349 409.353 306.911 410.145 307.244C410.938 307.576 411.809 307.663 412.651 307.493C413.492 307.324 414.265 306.906 414.871 306.292C415.478 305.678 415.891 304.896 416.058 304.045C416.226 303.194 416.14 302.311 415.811 301.509C415.483 300.707 414.927 300.022 414.214 299.54C413.501 299.058 412.662 298.8 411.805 298.8C410.655 298.801 409.553 299.264 408.739 300.087C407.926 300.91 407.469 302.025 407.468 303.189Z" fill="black"/>
<path d="M361.794 394.799L354.133 386.487L362.346 378.735L370.007 387.046L361.794 394.799ZM355.354 386.53L361.836 393.563L368.786 387.003L362.304 379.971L355.354 386.53Z" fill="black"/>
<path d="M298.527 276.563L292.292 269.798L298.976 263.489L305.211 270.253L298.527 276.563ZM293.285 269.833L298.561 275.557L304.217 270.218L298.942 264.495L293.285 269.833Z" fill="black"/>
<path d="M619 499.122H348.377V500H619V499.122Z" fill="black"/>
<path d="M386.108 285.829C377.531 285.829 369.146 283.255 362.014 278.432C354.882 273.61 349.323 266.756 346.041 258.736C342.758 250.717 341.899 241.893 343.573 233.379C345.246 224.866 349.377 217.046 355.442 210.908C361.507 204.77 369.235 200.59 377.648 198.897C386.06 197.204 394.78 198.073 402.705 201.395C410.63 204.716 417.403 210.341 422.168 217.559C426.934 224.776 429.477 233.261 429.477 241.941C429.464 253.577 424.891 264.732 416.761 272.96C408.63 281.188 397.607 285.816 386.108 285.829ZM386.108 198.932C377.702 198.932 369.485 201.454 362.496 206.18C355.506 210.906 350.059 217.623 346.842 225.482C343.625 233.341 342.784 241.989 344.423 250.332C346.063 258.675 350.111 266.339 356.055 272.354C361.999 278.369 369.572 282.465 377.817 284.125C386.061 285.784 394.607 284.932 402.373 281.677C410.139 278.422 416.777 272.909 421.447 265.836C426.117 258.763 428.61 250.448 428.61 241.941C428.597 230.538 424.115 219.606 416.148 211.543C408.18 203.48 397.377 198.944 386.108 198.932Z" fill="black"/>
<path d="M359.409 276.088L348.206 299.683L348.988 300.063L360.191 276.468L359.409 276.088Z" fill="black"/>
<path d="M356.824 331.086L356.411 331.858L405.76 358.884L406.173 358.112L356.824 331.086Z" fill="black"/>
<path d="M357.051 363.51H293.732V299.434H357.051V363.51ZM294.6 362.632H356.184V300.312H294.6V362.632Z" fill="black"/>
<path d="M450.949 395.109H385.454L418.202 337.71L450.949 395.109ZM386.956 394.231H449.447L418.202 339.465L386.956 394.231Z" fill="black"/>
<path d="M533.563 299.873C539.551 299.873 544.405 294.961 544.405 288.901C544.405 282.841 539.551 277.929 533.563 277.929C527.575 277.929 522.721 282.841 522.721 288.901C522.721 294.961 527.575 299.873 533.563 299.873Z" fill="#A0616A"/>
<path d="M539.201 294.606C539.201 294.606 540.502 307.773 542.671 309.967C544.839 312.161 527.491 308.65 527.491 308.65C527.491 308.65 530.093 297.678 528.359 295.923C526.624 294.167 539.201 294.606 539.201 294.606Z" fill="#A0616A"/>
<path d="M546.791 316.77C546.791 316.77 551.995 331.691 553.296 340.908C554.597 350.124 554.597 354.074 554.597 354.074C554.597 354.074 560.235 371.629 558.5 379.968C558.5 379.968 565.006 399.717 559.368 399.717C553.73 399.717 551.995 383.479 551.995 383.479L543.321 341.785L546.791 316.77Z" fill="#A0616A"/>
<path d="M549.393 323.792C549.393 323.792 548.092 307.553 542.454 306.237C539.762 305.608 535.39 304.679 531.556 303.88C524.876 302.489 517.986 305.696 514.95 311.875C514.38 312.996 514.002 314.205 513.83 315.453C512.963 322.475 508.626 322.475 512.529 331.691C516.432 340.908 515.565 350.563 515.565 350.563L518.167 373.823C518.167 373.823 507.325 404.545 508.192 425.172L498.217 475.642C498.217 475.642 500.386 480.909 506.457 478.276C506.457 478.276 521.637 452.382 520.335 433.51L535.948 398.4C535.948 398.4 546.791 431.755 549.826 434.827L557.633 482.226C557.633 482.226 565.006 484.42 568.475 482.226C568.475 482.226 569.776 436.583 562.403 429.122C562.403 429.122 555.031 397.523 556.765 389.184C558.5 380.845 558.934 368.118 545.923 356.707C545.923 356.707 547.658 351.88 542.02 349.246L546.357 335.202L549.393 323.792Z" fill="black"/>
<path d="M522.192 305.088C522.075 305.071 521.955 305.057 521.833 305.046C517.993 304.695 514.687 307.798 514.516 311.696L513.83 327.303L511.228 344.419L505.59 381.284C505.59 381.284 494.748 394.45 502.12 395.328C509.493 396.206 510.794 380.845 510.794 380.845L520.335 351.88L524.239 325.108C524.239 325.108 528.791 320.501 526.897 309.851C526.703 308.658 526.145 307.558 525.301 306.703C524.457 305.849 523.37 305.284 522.192 305.088Z" fill="#A0616A"/>
<path d="M497.35 473.887L494.314 489.686C494.314 489.686 486.941 493.197 491.712 497.586C496.483 501.975 502.988 496.708 502.988 496.708L504.723 491.442L504.289 499.342H505.59L506.891 491.442C506.891 491.442 509.493 486.614 507.758 482.664V477.398L497.35 473.887Z" fill="black"/>
<path d="M556.549 475.423L554.814 489.906C554.814 489.906 547.441 493.417 552.212 497.806C556.982 502.194 563.488 496.928 563.488 496.928L565.222 491.661L564.789 499.561H566.09L567.391 491.661C567.391 491.661 569.993 486.834 568.258 482.884V477.617L556.549 475.423Z" fill="black"/>
<path d="M539.219 271.942H539.219C538.611 271.943 538.004 272.004 537.408 272.124C536.33 271.595 535.148 271.319 533.95 271.318H533.636C527.586 271.318 522.681 276.858 522.681 283.693V283.693H524.709L525.036 281.171L525.516 283.693H527.205C526.68 285.716 526.416 287.8 526.421 289.893V302.488H529.486L531.26 297.821L530.817 302.488H550.518L552.132 298.245L551.728 302.488H553.947V292.598C553.947 281.19 547.353 271.942 539.219 271.942Z" fill="black"/>
<path d="M600.24 352.336H599.426V499.467H600.24V352.336Z" fill="black"/>
<path d="M599.99 486.858C608.746 486.858 615.844 470.465 615.844 450.245C615.844 430.024 608.746 413.632 599.99 413.632C591.234 413.632 584.135 430.024 584.135 450.245C584.135 470.465 591.234 486.858 599.99 486.858Z" fill="black"/>
<path d="M599.99 403.347C608.746 403.347 615.844 386.955 615.844 366.734C615.844 346.514 608.746 330.122 599.99 330.122C591.234 330.122 584.135 346.514 584.135 366.734C584.135 386.955 591.234 403.347 599.99 403.347Z" fill="black"/>
<path d="M600.379 336.822L599.6 336.586C599.649 336.419 604.429 319.844 596.581 309.173C592.148 303.147 584.542 300.091 573.972 300.091V299.268C584.814 299.268 592.641 302.436 597.235 308.685C605.327 319.69 600.43 336.652 600.379 336.822Z" fill="black"/>
<path d="M573.972 309.964C579.585 309.964 584.135 305.359 584.135 299.679C584.135 293.999 579.585 289.395 573.972 289.395C568.36 289.395 563.809 293.999 563.809 299.679C563.809 305.359 568.36 309.964 573.972 309.964Z" fill="white"/>
</svg>
